<?xml version="1.0" standalone="no"?>
<!DOCTYPE svg PUBLIC "-//W3C//DTD SVG 20010904//EN"
 "http://www.w3.org/TR/2001/REC-SVG-20010904/DTD/svg10.dtd">
<svg version="1.0" xmlns="http://www.w3.org/2000/svg"
 width="260.000000pt" height="260.000000pt" viewBox="0 0 260.000000 260.000000"
 preserveAspectRatio="xMidYMid meet">
<metadata>
Created by potrace 1.14, written by Peter Selinger 2001-2017
</metadata>
<g transform="translate(0.000000,260.000000) scale(0.100000,-0.100000)"
fill="#000000" stroke="none">
<path d="M1120 2403 c-65 -44 -76 -85 -75 -273 l1 -155 -411 -5 -410 -5 -57
-28 c-67 -33 -121 -93 -148 -165 -17 -45 -19 -89 -18 -698 0 -602 1 -653 18
-701 23 -65 59 -113 110 -147 82 -54 34 -52 1180 -51 l1065 1 46 22 c61 29
120 87 150 148 l24 49 0 675 0 675 -24 50 c-31 62 -89 121 -150 149 -44 20
-61 21 -457 24 l-410 3 1 147 c1 206 -12 253 -82 287 -47 23 -319 22 -353 -2z"/>
</g>
</svg>
